<svg viewBox="0 0 1080 1080" fill="none" xmlns="http://www.w3.org/2000/svg">        <defs>    <filter id="filter" x="-20%" y="-20%" width="140%" height="140%" filterUnits="objectBoundingBox" primitiveUnits="userSpaceOnUse" color-interpolation-filters="linearRGB">      <feMorphology operator="dilate" radius="20 20" in="SourceAlpha" result="morphology"/>      <feFlood flood-color="#ffffff" flood-opacity="1" result="flood"/>      <feComposite in="flood" in2="morphology" operator="in" result="composite"/>      <feMerge result="merge">            <feMergeNode in="composite" result="mergeNode"/>        <feMergeNode in="SourceGraphic" result="mergeNode1"/>        </feMerge>    </filter>  </defs>        <g id="notion-avatar" filter="url(#filter)">          <g id="notion-avatar-face" fill="#ffffff">            <title>Face/ 8</title>    <g id="Face/-8" stroke="none" stroke-width="1" fill-rule="evenodd" stroke-linecap="round" stroke-linejoin="round">        <path d="M532,379 C664.54834,379 772,486.45166 772,619 C772,751.54834 724.54834,899 592,899 C492.560218,899 373.476049,816.010833 320.189513,718.584987 C317.498129,718.859681 314.765451,719 312,719 C267.81722,719 232,683.18278 232,639 C232,599.134956 261.158843,566.080325 299.312086,560.00055 C325.599297,455.979213 419.809919,379 532,379 Z M295.858895,624.545187 L304.141105,655.454813" id="Path" stroke="#000000" stroke-width="24"/>    </g>      </g><g id="notion-avatar-nose">        <g id="Nose/ 13"><path id="Path" fill-rule="evenodd" clip-rule="evenodd" d="M644 560C644 560 665.892 613.522 673 623C676 627 693.906 641.256 692.774 653.58C690.065 683.076 644 684.359 644 684.359C644 684.359 700 689.489 700 653.58C700 637.222 687 632 674 620C666.959 613.5 644 560 644 560Z" fill="black" stroke="black" stroke-width="6" stroke-linecap="round" stroke-linejoin="round"/></g>      </g><g id="notion-avatar-mouth">            <title>Mouth/ 9</title>    <g id="Mouth/-9" stroke="none" stroke-width="1" fill="none" fill-rule="evenodd" stroke-linecap="round" stroke-linejoin="round">        <path d="M532,760 C569.387146,756.771376 597.387146,753.438043 616,750 C634.612854,746.561957 658.946187,740.228624 689,731 L667,780 C644.19345,787.762145 627.19345,792.095479 616,793 C604.80655,793.904521 588.80655,792.237855 568,788 L532,760 Z" id="Path" stroke="#000000" stroke-width="16"/>    </g>      </g><g id="notion-avatar-eyes">            <title>Eyes/ 9</title>    <g id="Eyes/-9" stroke="none" stroke-width="1" fill="none" fill-rule="evenodd">        <path d="M570,507 C575.854822,507 581.122051,511.025253 584.779642,517.440484 L578,531 L589.369946,531.000208 C589.781247,533.557105 590,536.237678 590,539 C590,556.673112 581.045695,571 570,571 C558.954305,571 550,556.673112 550,539 C550,521.326888 558.954305,507 570,507 Z M708,507 C713.854822,507 719.122051,511.025253 722.779642,517.440484 L716,531 L727.369946,531.000208 C727.781247,533.557105 728,536.237678 728,539 C728,556.673112 719.045695,571 708,571 C696.954305,571 688,556.673112 688,539 C688,521.326888 696.954305,507 708,507 Z" id="Combined-Shape" fill="#000000"/>    </g>      </g><g id="notion-avatar-eyebrows">            <title>Eyebrows/ 0</title>    <g id="Eyebrows/-0" stroke="none" stroke-width="1" fill="none" fill-rule="evenodd" stroke-linecap="round" stroke-linejoin="round">        <g id="Group" transform="translate(525.000000, 492.000000)" stroke="#000000" stroke-width="16">            <path d="M0,16 C12.8888889,5.33333333 27.8888889,0 45,0 C62.1111111,0 77.1111111,5.33333333 90,16" id="Path"/>            <path d="M138,16 C150.888889,5.33333333 165.888889,0 183,0 C200.111111,0 215.111111,5.33333333 228,16" id="Path"/>        </g>    </g>      </g><g id="notion-avatar-glasses">            <title>Glasses/ 2</title>    <g id="Glasses/-2" stroke="none" stroke-width="1" fill="none" fill-rule="evenodd" stroke-linecap="round" stroke-linejoin="round">        <path d="M574.189838,502.353993 C586.612079,503.247679 601.018598,506.362134 617.409394,511.697357 C622.107339,513.226543 629.521032,514.112461 639.650474,514.355109 L640.336909,514.337568 C650.115498,514.071859 657.30038,513.191789 661.891553,511.697357 C678.282349,506.362134 692.688868,503.247679 705.11111,502.353993 C722.696433,501.088862 751.030506,503.214809 790.113329,508.731836 L791.300947,508.900056 L791.300947,529.629258 C786.297933,531.828279 783.752241,534.010301 783.663873,536.175322 C781.481852,589.634841 763.639862,606 723.65829,606 C685.15235,606 666.860184,585.095985 650.56058,541.630375 C648.424017,535.932875 644.892754,533.024776 639.966791,532.906078 L639.650474,532.90229 C634.559091,532.90229 630.922389,535.811651 628.740368,541.630375 C612.440763,585.095985 594.148598,606 555.642657,606 C515.661085,606 497.819095,589.634841 495.637074,536.175322 C495.548712,534.010446 493.003357,531.828573 488.00101,529.629702 L488,530 L289,550 L293,541 L487.999,509 L488,508.900056 C527.696939,503.258104 556.426885,501.076083 574.189838,502.353993 Z M564.611618,508.971486 C532.97231,506.789465 518.789172,513.335528 512.243109,520.972603 C505.697045,528.609677 493.695928,595.161324 551.51949,598.434355 C609.343052,601.707387 614.798105,534.06473 611.525073,526.427656 C608.252042,518.790581 596.250925,511.153507 564.611618,508.971486 Z M714.580942,508.971486 C682.941634,511.153507 670.940518,518.790581 667.667486,526.427656 C664.394454,534.06473 669.849507,601.707387 727.673069,598.434355 C785.496631,595.161324 773.495514,528.609677 766.949451,520.972603 C760.403387,513.335528 746.220249,506.789465 714.580942,508.971486 Z" id="Combined-Shape" stroke="#000000" stroke-width="4" fill="#000000"/>    </g>      </g><g id="notion-avatar-hair">            <title>Hairstyle/ 8</title>    <g id="Hairstyle/-8" stroke="none" stroke-width="1" fill="none" fill-rule="evenodd" stroke-linecap="round" stroke-linejoin="round">        <path d="M589.5,149 C631.429764,149 667.646435,173.46066 684.658775,208.890741 C721.09813,214.498985 749,245.991077 749,284 C749,286.479516 748.88126,288.931299 748.649157,291.349973 C776.884031,307.885612 799.44561,330.956745 794,360 C786,402.666667 760.666667,438 718,466 L715.0861,463.567 C683.962033,437.635667 661.933333,421.113333 649,414 C615.112376,395.361807 560.361457,389 532,389 C494.328727,389 459.328727,395.666667 427,409 C427.442658,419.124205 429.109325,429.457538 432,440 C434.890675,450.542462 438.890675,460.875795 444,471 C418.42303,487.163731 403.86212,499.704664 400.317272,508.622798 C395.053173,521.866228 390.816933,592.760589 386.449154,651.362106 L386.17725,655 L366.146153,655 L328.203914,564.824988 L287.169322,564.824988 C281.896276,545.26754 277.997962,527.821458 275.474381,512.486743 C230.854476,504.457464 197,465.4323 197,418.5 C197,388.97181 210.401273,362.573655 231.453484,345.055871 C227.349851,337.983222 225,329.766029 225,321 C225,294.490332 246.490332,273 273,273 L273.516848,273.002725 L273.516848,273.002725 C278.783823,219.66548 323.776164,178 378.5,178 C395.981022,178 412.469019,182.251645 426.986338,189.77728 C440.350453,178.084255 457.847918,171 477,171 C490.487831,171 503.155028,174.513552 514.136247,180.675313 C533.28305,161.128247 559.975173,149 589.5,149 Z" id="Path" stroke="#000000" stroke-width="12" fill="#000000"/>    </g>      </g><g id="notion-avatar-accessories">            <title>Accessories/ 0</title>    <g id="Accessories/-0" stroke="none" stroke-width="1" fill="none" fill-rule="evenodd"/>      </g><g id="notion-avatar-details">            <title>Details/ 0</title>    <g id="Details/-0" stroke="none" stroke-width="1" fill="none" fill-rule="evenodd"/>      </g><g id="notion-avatar-beard">            <title>Beard/ 0</title>    <g id="Beard/-0" stroke="none" stroke-width="1" fill="none" fill-rule="evenodd"/>      </g>        </g>        </svg>